<svg width="656" height="286" viewBox="0 0 656 286" fill="none" xmlns="http://www.w3.org/2000/svg">
<g clip-path="url(#clip0_661_14230)">
<rect width="656" height="286" rx="12" fill="#222020"/>
<path opacity="0.72" d="M272.015 180.406C234.634 198.927 247.277 231.852 258.272 246H533.68C538.958 182.942 477.609 175.996 446.275 180.406C412.852 112.056 363.084 135.758 342.378 156.153C294.883 131.018 275.679 161.849 272.015 180.406Z" fill="#393939"/>
<path opacity="0.72" d="M41.9698 150.921C27.0338 119.644 2.43325 114.762 -8 116.23V217H210C196.382 173.829 154.905 175.884 135.869 182.309C113.026 119.754 63.7515 135.319 41.9698 150.921Z" fill="#393939"/>
<path d="M41.9698 224.921C27.0338 193.644 2.43325 188.762 -8 190.23V291H210C196.382 247.829 154.905 249.884 135.869 256.309C113.026 193.754 63.7515 209.319 41.9698 224.921Z" fill="#444444"/>
<path opacity="0.83" d="M35.0002 226.5C1.00019 243.3 12.5002 273.167 22.5002 286H273C277.8 228.8 222 222.5 193.5 226.5C163.1 164.5 117.833 186 99 204.5C55.8 181.7 38.3335 209.667 35.0002 226.5Z" fill="#393939"/>
<path d="M667.03 150.921C681.966 119.644 706.567 114.762 717 116.23V217H499C512.618 173.829 554.095 175.884 573.131 182.309C595.974 119.754 645.249 135.319 667.03 150.921Z" fill="#444444"/>
<path d="M133.015 225.406C95.6337 243.927 108.277 276.852 119.272 291H394.68C399.958 227.942 338.609 220.996 307.275 225.406C273.852 157.056 224.084 180.758 203.378 201.153C155.883 176.018 136.679 206.849 133.015 225.406Z" fill="#444444"/>
<path opacity="0.83" d="M327.015 230.406C289.634 248.927 302.277 281.852 313.272 296H588.68C593.958 232.942 532.609 225.996 501.275 230.406C467.852 162.056 418.084 185.758 397.378 206.153C349.883 181.018 330.679 211.849 327.015 230.406Z" fill="#393939"/>
<path opacity="0.72" d="M453.015 156.406C415.634 174.927 428.277 207.852 439.272 222H714.68C719.958 158.942 658.609 151.996 627.275 156.406C593.852 88.0562 544.084 111.758 523.378 132.153C475.883 107.018 456.679 137.849 453.015 156.406Z" fill="#393939"/>
<path opacity="0.83" d="M508.015 220.406C470.634 238.927 483.277 271.852 494.272 286H769.68C774.958 222.942 713.609 215.996 682.275 220.406C648.852 152.056 599.084 175.758 578.378 196.153C530.883 171.018 511.679 201.849 508.015 220.406Z" fill="#393939"/>
<path d="M30 22C30 22 30.2207 24.06 31.0804 24.9196C31.94 25.7793 34 26 34 26C34 26 31.94 26.2207 31.0804 27.0804C30.2207 27.94 30 30 30 30C30 30 29.7793 27.94 28.9196 27.0804C28.06 26.2207 26 26 26 26C26 26 28.06 25.7793 28.9196 24.9196C29.7793 24.06 30 22 30 22Z" fill="#FBFBFB"/>
<path d="M167 163C167 163 167.221 165.06 168.08 165.92C168.94 166.779 171 167 171 167C171 167 168.94 167.221 168.08 168.08C167.221 168.94 167 171 167 171C167 171 166.779 168.94 165.92 168.08C165.06 167.221 163 167 163 167C163 167 165.06 166.779 165.92 165.92C166.779 165.06 167 163 167 163Z" fill="#FBFBFB"/>
<path d="M434 28C434 28 434.221 30.06 435.08 30.9196C435.94 31.7793 438 32 438 32C438 32 435.94 32.2207 435.08 33.0804C434.221 33.94 434 36 434 36C434 36 433.779 33.94 432.92 33.0804C432.06 32.2207 430 32 430 32C430 32 432.06 31.7793 432.92 30.9196C433.779 30.06 434 28 434 28Z" fill="#FBFBFB"/>
<path d="M431 143C431 143 431.166 144.545 431.81 145.19C432.455 145.834 434 146 434 146C434 146 432.455 146.166 431.81 146.81C431.166 147.455 431 149 431 149C431 149 430.834 147.455 430.19 146.81C429.545 146.166 428 146 428 146C428 146 429.545 145.834 430.19 145.19C430.834 144.545 431 143 431 143Z" fill="#FBFBFB"/>
<path d="M624 18C624 18 624.331 21.09 625.621 22.3795C626.91 23.6689 630 24 630 24C630 24 626.91 24.3311 625.621 25.6205C624.331 26.91 624 30 624 30C624 30 623.669 26.91 622.379 25.6205C621.09 24.3311 618 24 618 24C618 24 621.09 23.6689 622.379 22.3795C623.669 21.09 624 18 624 18Z" fill="#FBFBFB"/>
<path d="M618 171C618 171 618.221 173.06 619.08 173.92C619.94 174.779 622 175 622 175C622 175 619.94 175.221 619.08 176.08C618.221 176.94 618 179 618 179C618 179 617.779 176.94 616.92 176.08C616.06 175.221 614 175 614 175C614 175 616.06 174.779 616.92 173.92C617.779 173.06 618 171 618 171Z" fill="#FBFBFB"/>
<g filter="url(#filter0_f_661_14230)">
<circle cx="328" cy="143" r="86" fill="#FF7B57"/>
</g>
<circle cx="328" cy="143" r="86" fill="#F05D35"/>
<path fill-rule="evenodd" clip-rule="evenodd" d="M363.654 116.651C365.145 118.022 365.266 120.369 363.924 121.892L326.445 164.432C321.724 169.79 313.732 170.457 308.222 165.955L291.141 151.995C289.574 150.715 289.32 148.38 290.574 146.779C291.827 145.179 294.113 144.919 295.68 146.2L312.761 160.159C315.266 162.206 318.898 161.902 321.044 159.467L358.524 116.927C359.866 115.404 362.163 115.28 363.654 116.651Z" fill="#28303F" stroke="white" stroke-width="13.6508" stroke-linecap="round" stroke-linejoin="round"/>
</g>
<defs>
<filter id="filter0_f_661_14230" x="214.152" y="29.1524" width="227.695" height="227.695" filterUnits="userSpaceOnUse" color-interpolation-filters="sRGB">
<feFlood flood-opacity="0" result="BackgroundImageFix"/>
<feBlend mode="normal" in="SourceGraphic" in2="BackgroundImageFix" result="shape"/>
<feGaussianBlur stdDeviation="13.9238" result="effect1_foregroundBlur_661_14230"/>
</filter>
<clipPath id="clip0_661_14230">
<rect width="656" height="286" rx="12" fill="white"/>
</clipPath>
</defs>
</svg>
